<svg id="SvgjsSvg2164" width="300" height="300" xmlns="http://www.w3.org/2000/svg" version="1.1" xmlns:xlink="http://www.w3.org/1999/xlink" xmlns:svgjs="http://svgjs.com/svgjs" viewBox="-0.9 -0.9 1.8 1.8"><defs id="SvgjsDefs2165"/><rect id="SvgjsRect2166" width="1.8" height="1.8" x="-0.9" y="-0.9" fill="none" opacity="0"/><g id="SvgjsG2167" opacity="1" stroke="#000000" stroke-width="0.1" stroke-linejoin="round"><polygon id="SvgjsPolygon2168" points="0.1391638046758929,-0.09614429222715562 0.6739465750750161,-0.47849044807936997 0.6110354354200581,0.3260825902081767 0.12419007165278709,0.7901162639081611" fill="black" stroke="black"/><polygon id="SvgjsPolygon2179" points="-0.10780781369678676,-0.6858898287486462 0.6739465750750161,-0.47849044807936997 0.1391638046758929,-0.09614429222715562 -0.7048125976159498,-0.37612731458686516" fill="black" stroke="black"/><polygon id="SvgjsPolygon2190" points="-0.7048125976159498,-0.37612731458686516 0.1391638046758929,-0.09614429222715562 0.12419007165278709,0.7901162639081611 -0.6362998814247656,0.4517619446940534" fill="black" stroke="black"/></g><g id="SvgjsG2169" opacity="1" stoke-opacity="0.5" stroke-width="0" stroke-linejoin="round"><polygon id="SvgjsPolygon2170" points="0.1628201965544266,-0.08906186901426347 0.3414052049765087,-0.2167422941185694 0.33025428268886436,0.060756784186953045 0.15795806738730173,0.19871628844376307" fill="#ee0000" stroke="black"/><polygon id="SvgjsPolygon2171" points="0.370863206503199,-0.23897835800194242 0.5311664014430882,-0.35358809067966385 0.5149846264292953,-0.08580757860367488 0.3597122842155546,0.03852072030358003" fill="#ee0000" stroke="black"/><polygon id="SvgjsPolygon2172" points="0.5577213401042287,-0.37363797144878574 0.7024133014648687,-0.47708635885227135 0.6821923416434719,-0.21847970874512374 0.5415395650904358,-0.10585745937279681" fill="#ee0000" stroke="black"/><polygon id="SvgjsPolygon2173" points="0.15661468401977247,0.24686331221766383 0.3289108993213351,0.10890380796085383 0.3185480169897952,0.3667919199403694 0.15211429908157534,0.5132306671047153" fill="#0000f2" stroke="black"/><polygon id="SvgjsPolygon2174" points="0.3573966618733915,0.0850435634681893 0.5126690040871322,-0.039284735439065605 0.49757620649692796,0.2104750754543169 0.34703377954185155,0.34293167544770486" fill="#0000f2" stroke="black"/><polygon id="SvgjsPolygon2175" points="0.5384421586615173,-0.06087715190782443 0.6790949352145534,-0.17349940128015134 0.6601727707006038,0.06849690458021314 0.523349361071313,0.18888265898555812" fill="#0000f2" stroke="black"/><polygon id="SvgjsPolygon2176" points="0.1508652479431693,0.5579352925771438 0.3172989658513891,0.4114965454127979 0.3076434378876512,0.6517816125466028 0.14668768431483178,0.8051956022693204" fill="#ee0000" stroke="black"/><polygon id="SvgjsPolygon2177" points="0.34487439271710685,0.38628936082825505 0.4954168196721832,0.25383276083486705 0.481306651323283,0.48733174983492 0.33521886475336893,0.6265744279620599" fill="#ee0000" stroke="black"/><polygon id="SvgjsPolygon2178" points="0.5204519429017623,0.23094409761272325 0.657275352531053,0.11055834320737831 0.6395307441996821,0.3374948367552009 0.5063417745528621,0.46444308661277617" fill="#ee0000" stroke="black"/></g><g id="SvgjsG2180" opacity="1" stoke-opacity="0.5" stroke-width="0" stroke-linejoin="round"><polygon id="SvgjsPolygon2181" points="-0.10918753765969497,-0.7165326534689684 0.11140538007017091,-0.6580093689510766 -0.04683577805441173,-0.5676423795023932 -0.27250280951899386,-0.6317947241008829" fill="#fefe00" stroke="black"/><polygon id="SvgjsPolygon2182" points="0.15215916119887754,-0.6467933401007667 0.3872983914811239,-0.5844109199544518 0.23520127146977085,-0.487834641533129 -0.006081996925705102,-0.5564263506520832" fill="#fefe00" stroke="black"/><polygon id="SvgjsPolygon2183" points="0.4308617272372217,-0.5724205536936289 0.6820351435400376,-0.5057842651994475 0.5373431821793976,-0.40233587779596186 0.2787646072258687,-0.4758442752723061" fill="#fefe00" stroke="black"/><polygon id="SvgjsPolygon2184" points="-0.3022760709317693,-0.6155444274523468 -0.0766090394671872,-0.5513920828538571 -0.2507240636193435,-0.45195998353853434 -0.4814183634166689,-0.5225944739385047" fill="#fefe00" stroke="black"/><polygon id="SvgjsPolygon2185" points="-0.03486004083820768,-0.5390454191862764 0.20642322755726827,-0.47045371006732223 0.03851322134015506,-0.3638368095701955 -0.20897506499036397,-0.43961331987095364" fill="#fefe00" stroke="black"/><polygon id="SvgjsPolygon2186" points="0.25119987355370027,-0.4572102154694493 0.5097784485072292,-0.383701817993105 0.34947525356733994,-0.2690920853153836 0.08328986733658705,-0.3505933149723226" fill="#fefe00" stroke="black"/><polygon id="SvgjsPolygon2187" points="-0.5142106468284433,-0.5046930121591554 -0.28351634703111794,-0.4340585217591851 -0.47601993321299574,-0.32412524177373564 -0.7115978339005093,-0.40227649393734494" fill="#fefe00" stroke="black"/><polygon id="SvgjsPolygon2188" points="-0.24077851783979248,-0.4204008520791649 0.006709768490726575,-0.3446243417784068 -0.17961433965064008,-0.22631513945345733 -0.4332821040216702,-0.31046757209371545" fill="#fefe00" stroke="black"/><polygon id="SvgjsPolygon2189" points="0.052716777809599186,-0.32992002153690203 0.3189021640403521,-0.24841879187996307 0.14031715561826993,-0.12073836677565714 -0.13360733033176747,-0.2116108192119526" fill="#fefe00" stroke="black"/></g><g id="SvgjsG2191" opacity="1" stoke-opacity="0.5" stroke-width="0" stroke-linejoin="round"><polygon id="SvgjsPolygon2192" points="-0.7277423498811939,-0.36910377467008443 -0.49216444919368024,-0.29095252250647513 -0.47774844323603827,-0.01741155569933328 -0.7056603363835425,-0.10227065500529857" fill="#0000f2" stroke="black"/><polygon id="SvgjsPolygon2193" points="-0.4497815270766666,-0.2760156850883394 -0.1961137627056364,-0.19186325244808125 -0.19060363781371698,0.08865818696073166 -0.4353655211190246,-0.0024747182811975243" fill="#0000f2" stroke="black"/><polygon id="SvgjsPolygon2194" points="-0.15047670421192846,-0.17577958158404297 0.12344778173810891,-0.08490712914774748 0.11858565257098405,0.20287102831027906 -0.14496657932000906,0.10474185782476993" fill="#0000f2" stroke="black"/><polygon id="SvgjsPolygon2195" points="-0.7025280466344692,-0.056262719584321344 -0.47461615348696484,0.028596379721643944 -0.46119888316178476,0.28318652816126655 -0.6819249716775848,0.1926993040109287" fill="#ffa100" stroke="black"/><polygon id="SvgjsPolygon2196" points="-0.4336422164492108,0.04463722371793541 -0.18888033314390323,0.13577012895986457 -0.1837655528436558,0.39616450480956245 -0.4202249461240307,0.299227372157558" fill="#ffa100" stroke="black"/><polygon id="SvgjsPolygon2197" points="-0.14487748461820998,0.15299675143911093 0.11867474727278308,0.25112592192462 0.11417436233458593,0.5174932768116716 -0.13976270431796262,0.41339112728880884" fill="#ffa100" stroke="black"/><polygon id="SvgjsPolygon2198" points="-0.6790024490707066,0.23562619619319802 -0.45827636055490645,0.32611342034353585 -0.4457575126338368,0.5636561748140048 -0.6597345494800224,0.4684543193042055" fill="#0000f2" stroke="black"/><polygon id="SvgjsPolygon2199" points="-0.41862102429516757,0.3430757763354803 -0.1821616310147927,0.4400129089874848 -0.17740112061285762,0.6823713412309819 -0.40610217637409796,0.5806185308059492" fill="#0000f2" stroke="black"/><polygon id="SvgjsPolygon2200" points="-0.13968000872926467,0.45818418777779774 0.11425705792328389,0.5622863373006605 0.11007949429494636,0.809546646992837 -0.13491949832732958,0.7005426200212947" fill="#0000f2" stroke="black"/></g><g id="SvgjsG2201" opacity="1" stoke-opacity="1" stroke="#000000" stroke-width="0.04" stroke-linecap="round"><path id="SvgjsPath2202" d="M -0.3087038846464333,0.22040086426374894 Q 0.0733644487450102,0.48534344335999535 0.42748643418515975,0.1477593194612531" fill="none" stoke-opacity="1" stroke="dgray"/><path id="SvgjsPath2203" d="M 5.77,0.0 L -2.88,5.0 L -2.88,-5.0 L 5.77,0.0 z" transform="translate(0.42748643418515975,0.1477593194612531) scale(0.011000000000000001) rotate(-43.63038772083045)" stroke-width="0" stroke-linejoin="round"/></g></svg>
